:SAMPLES-PER-SECOND 30
:FULLY-SPECIFIED
:DEGREES
1
root  30.2561 38.5432 9.84477 162.158 -78.9155 -162
RightUpLeg  -5.5341 -7.71498 4.88083
RightLeg  19.0504 0.608481 2.91892
RightFoot  -13.587 -0.203537 -5.69931
RightToes  3.49245e-010 0 -3.6325e-017
Spine  -20.8405 -1.09592 10.6151
Spine1  21.5953 -3.45309 1.86376
HEad  -14.819 0.0339948 -1.74654
LeftShoulder1  -0.418226 4.53791 -34.2869
LeftArm  19.3627 2.12707 -43.5334
LeftForeArm  19.6273 -14.5752 -9.78677
LeftHand  -0.0169943 7.70964 1.2264
RightShoulder  -1.0952 -6.28438 32.7997
RightArm  15.2456 0.729393 41.3249
RightForeArm  15.6258 8.99273 7.30914
RightHand  -0.0717196 0.667669 -1.44979
LeftUpLeg  -15.1438 0.035565 16.719
LeftLeg  6.19468 0.491967 2.57651
LeftFoot  8.57641 1.69672 -9.93841
LeftToes  -5.36635e-011 -6.70219e-011 5.24975e-011
2
root  30.2449 38.5473 9.83793 162.219 -78.9314 -161.988
RightUpLeg  -5.56753 -7.68015 4.88165
RightLeg  19.018 0.576929 2.93133
RightFoot  -13.5921 -0.202522 -5.63334
RightToes  3.49245e-010 0 -3.6325e-017
Spine  -20.948 -1.11583 10.5729
Spine1  21.6477 -3.48545 1.89096
HEad  -15.1348 -0.238512 -1.73912
LeftShoulder1  -0.394476 4.48071 -34.2212
LeftArm  19.0842 2.05953 -43.6028
LeftForeArm  20.0227 -14.425 -9.86041
LeftHand  -0.0187781 7.69792 1.10757
RightShoulder  -1.09526 -6.28516 32.7709
RightArm  15.238 0.723611 41.382
RightForeArm  15.6468 9.02847 7.30064
RightHand  -0.0637036 0.619822 -1.30163
LeftUpLeg  -15.1849 0.0797992 16.7061
LeftLeg  6.13882 0.466725 2.58993
LeftFoot  8.63252 1.69699 -9.94265
LeftToes  -5.36635e-011 -6.70219e-011 5.24975e-011
3
root  30.2309 38.5518 9.83588 162.204 -78.9823 -161.982
RightUpLeg  -5.50287 -7.79559 4.81388
RightLeg  18.9661 0.592048 3.02408
RightFoot  -13.5611 -0.203318 -5.76082
RightToes  3.49245e-010 0 -3.6325e-017
Spine  -21.0329 -1.14772 10.6445
Spine1  21.8067 -3.48645 1.74291
HEad  -15.5699 -0.541936 -1.65158
LeftShoulder1  -0.344501 4.3623 -33.9819
LeftArm  18.9051 1.90726 -43.7585
LeftForeArm  20.3576 -14.1602 -10.0393
LeftHand  -0.0169419 7.34397 1.25828
RightShoulder  -1.09646 -6.29073 32.7553
RightArm  15.2177 0.786618 41.4538
RightForeArm  15.3814 9.01429 7.3003
RightHand  -0.0735898 0.87019 -1.45895
LeftUpLeg  -15.1644 0.0803038 16.675
LeftLeg  6.13272 0.394499 2.5883
LeftFoot  8.62358 1.69669 -9.91653
LeftToes  -5.36635e-011 -6.70219e-011 5.24975e-011
4
root  30.2255 38.5515 9.82842 162.222 -79.0125 -162.004
RightUpLeg  -5.46632 -7.76264 4.80788
RightLeg  18.9226 0.534049 3.0157
RightFoot  -13.6012 -0.204007 -5.71072
RightToes  3.49245e-010 0 -3.6325e-017
Spine  -21.0276 -1.16263 10.6083
Spine1  21.8293 -3.49566 1.75601
HEad  -16.0501 -1.05291 -1.36141
LeftShoulder1  -0.330844 4.33056 -33.8722
LeftArm  19.6162 1.61564 -43.7281
LeftForeArm  20.4435 -14.1343 -10.1381
LeftHand  -0.0220868 7.04176 1.05468
RightShoulder  -1.09457 -6.2919 32.6769
RightArm  15.1216 0.698431 41.5589
RightForeArm  15.3538 9.10854 7.25253
RightHand  -0.0757391 0.860361 -1.50092
LeftUpLeg  -15.1665 0.0684639 16.6738
LeftLeg  6.13443 0.386416 2.5764
LeftFoot  8.64082 1.7088 -9.98125
LeftToes  -5.36635e-011 -6.70219e-011 5.24975e-011
5
root  30.2436 38.5442 9.82073 162.569 -78.8823 -162.368
RightUpLeg  -5.51882 -7.68244 4.83822
RightLeg  18.9941 0.621023 2.97152
RightFoot  -13.6452 -0.203548 -5.72666
RightToes  3.49245e-010 0 -3.6325e-017
Spine  -20.7109 -1.12147 10.491
Spine1  21.5905 -3.47948 1.98782
HEad  -16.2228 -1.41585 -1.34179
LeftShoulder1  -0.344271 4.36303 -33.9206
LeftArm  19.2689 1.28566 -43.6397
LeftForeArm  21.1354 -13.9571 -10.2154
LeftHand  -0.0185488 7.16739 1.25997
RightShoulder  -1.07373 -6.255 32.4466
RightArm  15.0205 0.612357 41.68
RightForeArm  15.1434 9.17751 7.20334
RightHand  -0.0633425 0.581154 -1.29791
LeftUpLeg  -15.1101 0.121726 16.6877
LeftLeg  6.08153 0.513816 2.58696
LeftFoot  8.70275 1.73985 -10.1264
LeftToes  -5.36635e-011 -6.70219e-011 5.24975e-011
6
root  30.2334 38.5477 9.82063 162.779 -78.8864 -162.646
RightUpLeg  -5.39634 -7.72203 4.75664
RightLeg  18.9287 0.674158 3.00078
RightFoot  -13.6753 -0.204846 -5.72893
RightToes  3.49245e-010 0 -3.6325e-017
Spine  -20.7423 -1.122 10.5528
Spine1  21.7893 -3.46384 1.91145
HEad  -16.586 -1.89662 -1.40742
LeftShoulder1  -0.365065 4.416 -33.8735
LeftArm  17.0302 0.981497 -43.6076
LeftForeArm  23.0028 -13.4741 -10.2619
LeftHand  -0.0262563 7.2707 0.672684
RightShoulder  -1.04889 -6.20475 32.2504
RightArm  15.2195 0.68735 41.4923
RightForeArm  14.4876 9.34369 7.22443
RightHand  -0.0366104 0.862688 -0.767066
LeftUpLeg  -14.9447 0.295015 16.5357
LeftLeg  5.88066 0.488762 2.67765
LeftFoot  8.90764 1.77757 -10.2399
LeftToes  -5.36635e-011 -6.70219e-011 5.24975e-011
7
root  30.201 38.5598 9.79956 162.908 -79.02 -162.921
RightUpLeg  -5.07057 -7.77122 4.64195
RightLeg  18.7184 0.572061 2.99348
RightFoot  -13.7401 -0.207383 -5.72139
RightToes  3.49245e-010 0 -3.6325e-017
Spine  -21.1556 -1.17637 10.3337
Spine1  22.5869 -3.57404 2.07316
HEad  -16.5945 -1.82983 -1.74944
LeftShoulder1  -0.377202 4.44979 -33.7326
LeftArm  16.6978 0.462513 -43.2027
LeftForeArm  23.6868 -13.5416 -10.146
LeftHand  -0.0400521 6.40463 -0.330173
RightShoulder  -0.993187 -6.08952 31.8143
RightArm  15.2636 1.00954 41.0708
RightForeArm  15.6205 9.8651 7.06671
RightHand  -0.0153944 1.55515 -0.391709
LeftUpLeg  -14.6459 0.69751 16.2974
LeftLeg  5.57828 -0.0454 2.75183
LeftFoot  9.14949 1.77913 -10.1331
LeftToes  -5.36635e-011 -6.70219e-011 5.24975e-011
8
root  30.2716 38.5346 9.79152 162.912 -78.9251 -162.666
RightUpLeg  -5.64179 -7.63387 4.89736
RightLeg  19.0761 0.534904 2.83616
RightFoot  -13.8957 -0.214077 -5.65406
RightToes  3.49245e-010 0 -3.6325e-017
Spine  -20.9114 -1.12614 10.1999
Spine1  22.3267 -3.66742 2.51655
HEad  -16.4595 -1.24588 -2.13264
LeftShoulder1  -0.347352 4.38449 -33.2707
LeftArm  16.846 -0.247531 -42.582
LeftForeArm  25.072 -13.8678 -9.89074
LeftHand  -0.049733 6.5532 -1.26454
RightShoulder  -0.909264 -5.91513 31.108
RightArm  14.3332 1.85644 40.2865
RightForeArm  19.3345 10.0651 6.62664
RightHand  0.109914 1.76127 1.63041
LeftUpLeg  -14.9763 1.49305 16.3654
LeftLeg  5.4708 -0.677629 2.59944
LeftFoot  9.30138 1.81574 -10.2625
LeftToes  -5.36635e-011 -6.70219e-011 5.24975e-011
9
root  30.5267 38.4608 9.78638 163.09 -77.9384 -161.939
RightUpLeg  -7.5319 -6.79638 5.96673
RightLeg  19.9489 0.651913 2.31054
RightFoot  -13.8825 -0.224966 -5.52205
RightToes  3.49245e-010 0 -3.6325e-017
Spine  -19.2936 -0.621245 10.851
Spine1  19.9546 -3.23483 2.5876
HEad  -16.1173 -0.509867 -2.44299
LeftShoulder1  -0.269171 4.20819 -32.0978
LeftArm  15.81 -0.770209 -41.641
LeftForeArm  26.5295 -13.9188 -9.69249
LeftHand  -0.0376851 5.6791 -1.06581
RightShoulder  -0.816765 -5.71235 30.3303
RightArm  14.1659 3.2175 38.8369
RightForeArm  21.3694 9.8711 6.57729
RightHand  0.129457 1.78328 1.9407
LeftUpLeg  -16.2193 2.38381 17.1607
LeftLeg  5.9041 -0.438254 2.33558
LeftFoot  9.5651 1.84283 -10.2852
LeftToes  -5.36635e-011 -6.70219e-011 5.24975e-011
10
root  30.5037 38.485 9.76531 163.268 -78.1871 -162.386
RightUpLeg  -7.10134 -7.00517 5.75468
RightLeg  19.7624 0.62528 2.32004
RightFoot  -13.896 -0.225007 -5.55668
RightToes  3.49245e-010 0 -3.6325e-017
Spine  -19.5064 -0.791149 10.7365
Spine1  20.5972 -3.40345 2.56011
HEad  -15.6059 -0.204453 -3.2636
LeftShoulder1  -0.247613 4.17215 -30.9699
LeftArm  13.142 -1.75165 -40.0822
LeftForeArm  27.3514 -13.3223 -9.76009
LeftHand  -0.0518305 6.29255 -1.10792
RightShoulder  -0.640628 -5.31772 28.5751
RightArm  12.8213 4.68313 37.3147
RightForeArm  21.6825 9.22185 6.33033
RightHand  0.0709982 1.74555 0.99731
LeftUpLeg  -15.7331 2.60915 16.7892
LeftLeg  5.45718 -0.976102 2.55435
LeftFoot  9.51438 1.86265 -10.4176
LeftToes  -5.36635e-011 -6.70219e-011 5.24975e-011
11
root  30.519 38.4802 9.74027 163.015 -78.4728 -162.077
RightUpLeg  -7.16838 -6.98227 5.78012
RightLeg  19.7428 0.343164 2.25204
RightFoot  -13.9593 -0.225049 -5.58377
RightToes  3.49245e-010 0 -3.6325e-017
Spine  -19.3892 -0.891872 10.7644
Spine1  20.3547 -3.53908 2.63707
HEad  -14.7293 -0.0297533 -4.10361
LeftShoulder1  -0.218616 4.11921 -29.2068
LeftArm  8.69675 -2.30298 -38.3332
LeftForeArm  28.4262 -12.6774 -9.50205
LeftHand  -0.0562324 6.50428 -1.20781
RightShoulder  -0.476686 -4.93257 26.5332
RightArm  10.2648 5.78235 35.1683
RightForeArm  20.7884 8.42282 5.57916
RightHand  0.0778219 2.19228 1.00802
LeftUpLeg  -15.9464 1.94715 16.8412
LeftLeg  5.64619 -0.628951 2.593
LeftFoot  8.91132 1.79606 -10.3418
LeftToes  -5.36635e-011 -6.70219e-011 5.24975e-011
12
root  30.5283 38.4792 9.68557 163.188 -78.8936 -162.266
RightUpLeg  -7.19652 -7.059 5.69706
RightLeg  19.8516 0.0610163 2.1721
RightFoot  -14.098 -0.228355 -5.54285
RightToes  3.49245e-010 0 -3.6325e-017
Spine  -19.3047 -0.951411 10.4974
Spine1  20.1588 -3.58818 2.79703
HEad  -13.9208 0.526691 -4.20329
LeftShoulder1  -0.120896 3.86908 -27.1439
LeftArm  3.68677 -2.81706 -36.0286
LeftForeArm  29.5578 -11.9162 -9.05082
LeftHand  -0.0431196 6.07373 -1.37177
RightShoulder  -0.376685 -4.6943 24.6441
RightArm  7.58353 7.1599 32.4084
RightForeArm  18.2289 7.12278 4.70125
RightHand  0.0257339 2.04238 0.230005
LeftUpLeg  -16.4855 -0.135107 17.1168
LeftLeg  6.70532 0.906057 2.47432
LeftFoot  7.59427 1.52784 -9.42246
LeftToes  -5.36635e-011 -6.70219e-011 5.24975e-011
13
root  30.5445 38.4703 9.62275 164.671 -79.2923 -163.631
RightUpLeg  -7.51715 -6.92441 5.55476
RightLeg  20.1605 -0.266218 1.83123
RightFoot  -14.4108 -0.241435 -5.37283
RightToes  3.49245e-010 0 -3.6325e-017
Spine  -18.9217 -0.889191 9.76274
Spine1  19.4676 -3.6069 3.55787
HEad  -13.1442 0.552725 -4.99908
LeftShoulder1  -0.118645 3.87335 -25.5591
LeftArm  -0.187048 -3.73188 -33.2051
LeftForeArm  29.2595 -11.2814 -8.5582
LeftHand  -0.0405013 6.19945 -0.488276
RightShoulder  -0.301345 -4.53002 22.2765
RightArm  4.78314 8.39425 29.2826
RightForeArm  16.0845 5.66933 3.69832
RightHand  0.0753363 2.70713 0.859922
LeftUpLeg  -17.773 -2.71061 17.5039
LeftLeg  8.89397 2.52604 1.84212
LeftFoot  4.94556 1.05921 -7.57064
LeftToes  -5.36635e-011 -6.70219e-011 5.24975e-011
